<svg width="295" height="42" viewBox="0 0 295 42" fill="none" xmlns="http://www.w3.org/2000/svg">
<path d="M24.36 5.28L16.64 33H8.48L0.48 5.28H7.4L12.68 27.88L17.64 5.28H24.36ZM32.6125 11.76V33H26.2925V11.76H32.6125ZM29.4125 0.559998C30.5058 0.559998 31.3992 0.906665 32.0925 1.6C32.8125 2.26666 33.1725 3.12 33.1725 4.16C33.1725 5.2 32.8125 6.06667 32.0925 6.76C31.3992 7.42667 30.5058 7.76 29.4125 7.76C28.3192 7.76 27.4258 7.42667 26.7325 6.76C26.0392 6.06667 25.6925 5.2 25.6925 4.16C25.6925 3.12 26.0392 2.26666 26.7325 1.6C27.4258 0.906665 28.3192 0.559998 29.4125 0.559998ZM50.0216 11.08C51.8616 11.08 53.3016 11.64 54.3416 12.76C55.3816 13.88 55.9016 15.4533 55.9016 17.48V33H49.5816V18.56C49.5816 17.4933 49.4082 16.76 49.0616 16.36C48.7416 15.9333 48.2482 15.72 47.5816 15.72C46.3016 15.72 45.0749 16.64 43.9016 18.48V33H37.5816V11.76H43.1016L43.5416 14.28C44.4482 13.2133 45.4216 12.4133 46.4616 11.88C47.5282 11.3467 48.7149 11.08 50.0216 11.08ZM66.9875 11.76V33H60.6675V11.76H66.9875ZM63.7875 0.559998C64.8808 0.559998 65.7742 0.906665 66.4675 1.6C67.1875 2.26666 67.5475 3.12 67.5475 4.16C67.5475 5.2 67.1875 6.06667 66.4675 6.76C65.7742 7.42667 64.8808 7.76 63.7875 7.76C62.6942 7.76 61.8008 7.42667 61.1075 6.76C60.4142 6.06667 60.0675 5.2 60.0675 4.16C60.0675 3.12 60.4142 2.26666 61.1075 1.6C61.8008 0.906665 62.6942 0.559998 63.7875 0.559998ZM81.1566 11.08C82.6232 11.08 83.9432 11.2933 85.1166 11.72C86.2899 12.1467 87.3966 12.8 88.4366 13.68L85.7166 17.44C84.3832 16.4267 83.0366 15.92 81.6766 15.92C80.2632 15.92 79.1966 16.44 78.4766 17.48C77.7566 18.52 77.3966 20.2 77.3966 22.52C77.3966 24.76 77.7566 26.3467 78.4766 27.28C79.1966 28.2133 80.2366 28.68 81.5966 28.68C82.3166 28.68 82.9699 28.5733 83.5566 28.36C84.1432 28.12 84.8499 27.7467 85.6766 27.24L88.4366 31.16C86.3299 32.84 83.9432 33.68 81.2766 33.68C79.1166 33.68 77.2499 33.2267 75.6766 32.32C74.1032 31.3867 72.8899 30.0933 72.0366 28.44C71.1832 26.76 70.7566 24.8 70.7566 22.56C70.7566 20.32 71.1832 18.3333 72.0366 16.6C72.8899 14.8667 74.1032 13.52 75.6766 12.56C77.2499 11.5733 79.0766 11.08 81.1566 11.08ZM97.4172 11.76V33H91.0972V11.76H97.4172ZM94.2172 0.559998C95.3105 0.559998 96.2039 0.906665 96.8972 1.6C97.6172 2.26666 97.9772 3.12 97.9772 4.16C97.9772 5.2 97.6172 6.06667 96.8972 6.76C96.2039 7.42667 95.3105 7.76 94.2172 7.76C93.1239 7.76 92.2305 7.42667 91.5372 6.76C90.8439 6.06667 90.4972 5.2 90.4972 4.16C90.4972 3.12 90.8439 2.26666 91.5372 1.6C92.2305 0.906665 93.1239 0.559998 94.2172 0.559998ZM120.306 33H114.826L114.546 30.32C113 32.56 110.853 33.68 108.106 33.68C106.16 33.68 104.68 33.0933 103.666 31.92C102.68 30.7467 102.186 29.1067 102.186 27V11.76H108.506V26.2C108.506 27.24 108.666 27.9733 108.986 28.4C109.333 28.8 109.853 29 110.546 29C111.88 29 113.026 28.1733 113.986 26.52V11.76H120.306V33ZM132.757 11.08C134.277 11.08 135.704 11.3067 137.037 11.76C138.37 12.2133 139.544 12.8533 140.557 13.68L138.237 17.24C136.504 16.1467 134.757 15.6 132.997 15.6C132.17 15.6 131.53 15.7467 131.077 16.04C130.65 16.3067 130.437 16.6933 130.437 17.2C130.437 17.6 130.53 17.9333 130.717 18.2C130.93 18.44 131.344 18.6933 131.957 18.96C132.57 19.2267 133.517 19.5467 134.797 19.92C137.01 20.56 138.65 21.4 139.717 22.44C140.81 23.4533 141.357 24.8667 141.357 26.68C141.357 28.12 140.944 29.3733 140.117 30.44C139.29 31.48 138.157 32.28 136.717 32.84C135.277 33.4 133.677 33.68 131.917 33.68C130.13 33.68 128.464 33.4 126.917 32.84C125.397 32.28 124.104 31.5067 123.037 30.52L126.117 27.08C127.904 28.4667 129.784 29.16 131.757 29.16C132.717 29.16 133.464 28.9867 133.997 28.64C134.557 28.2933 134.837 27.8 134.837 27.16C134.837 26.6533 134.73 26.2533 134.517 25.96C134.304 25.6667 133.89 25.4 133.277 25.16C132.664 24.8933 131.69 24.5733 130.357 24.2C128.25 23.5867 126.677 22.7333 125.637 21.64C124.597 20.5467 124.077 19.1867 124.077 17.56C124.077 16.3333 124.424 15.24 125.117 14.28C125.837 13.2933 126.85 12.52 128.157 11.96C129.49 11.3733 131.024 11.08 132.757 11.08ZM154.225 33V5.28H170.745L170.065 9.96H160.785V17.32H168.865V22H160.785V33H154.225ZM178.745 11.76V33H172.425V11.76H178.745ZM175.545 0.559998C176.639 0.559998 177.532 0.906665 178.225 1.6C178.945 2.26666 179.305 3.12 179.305 4.16C179.305 5.2 178.945 6.06667 178.225 6.76C177.532 7.42667 176.639 7.76 175.545 7.76C174.452 7.76 173.559 7.42667 172.865 6.76C172.172 6.06667 171.825 5.2 171.825 4.16C171.825 3.12 172.172 2.26666 172.865 1.6C173.559 0.906665 174.452 0.559998 175.545 0.559998ZM203.274 13C201.888 13.56 199.848 13.84 197.154 13.84C198.541 14.4267 199.554 15.1467 200.194 16C200.834 16.8533 201.154 17.96 201.154 19.32C201.154 20.68 200.794 21.9067 200.074 23C199.354 24.0667 198.314 24.9067 196.954 25.52C195.621 26.1333 194.048 26.44 192.234 26.44C191.381 26.44 190.568 26.36 189.794 26.2C189.581 26.3067 189.408 26.48 189.274 26.72C189.168 26.9333 189.114 27.16 189.114 27.4C189.114 27.8 189.261 28.12 189.554 28.36C189.874 28.5733 190.501 28.68 191.434 28.68H194.634C196.261 28.68 197.688 28.9467 198.914 29.48C200.141 30.0133 201.088 30.7467 201.754 31.68C202.421 32.6133 202.754 33.6667 202.754 34.84C202.754 37.0533 201.794 38.7733 199.874 40C197.981 41.2533 195.234 41.88 191.634 41.88C189.048 41.88 187.008 41.6 185.514 41.04C184.021 40.5067 182.968 39.7467 182.354 38.76C181.768 37.7733 181.474 36.5333 181.474 35.04H187.154C187.154 35.68 187.274 36.1867 187.514 36.56C187.781 36.9333 188.248 37.2133 188.914 37.4C189.581 37.5867 190.541 37.68 191.794 37.68C193.528 37.68 194.728 37.4667 195.394 37.04C196.061 36.64 196.394 36.0533 196.394 35.28C196.394 34.64 196.141 34.1333 195.634 33.76C195.128 33.3867 194.368 33.2 193.354 33.2H190.274C188.088 33.2 186.448 32.8133 185.354 32.04C184.288 31.24 183.754 30.2267 183.754 29C183.754 28.2267 183.981 27.48 184.434 26.76C184.888 26.0133 185.501 25.4 186.274 24.92C184.941 24.2 183.968 23.36 183.354 22.4C182.768 21.4133 182.474 20.2267 182.474 18.84C182.474 16.4667 183.328 14.5867 185.034 13.2C186.741 11.7867 188.994 11.08 191.794 11.08C193.928 11.1333 195.728 10.92 197.194 10.44C198.688 9.96 200.221 9.25333 201.794 8.32L203.274 13ZM191.954 15.24C190.968 15.24 190.181 15.56 189.594 16.2C189.034 16.8133 188.754 17.6667 188.754 18.76C188.754 19.9067 189.034 20.8 189.594 21.44C190.181 22.0533 190.968 22.36 191.954 22.36C192.994 22.36 193.781 22.0533 194.314 21.44C194.874 20.8267 195.154 19.9067 195.154 18.68C195.154 16.3867 194.088 15.24 191.954 15.24ZM223.275 33H217.795L217.515 30.32C215.968 32.56 213.822 33.68 211.075 33.68C209.128 33.68 207.648 33.0933 206.635 31.92C205.648 30.7467 205.155 29.1067 205.155 27V11.76H211.475V26.2C211.475 27.24 211.635 27.9733 211.955 28.4C212.302 28.8 212.822 29 213.515 29C214.848 29 215.995 28.1733 216.955 26.52V11.76H223.275V33ZM246.766 21.96C246.766 22.84 246.726 23.6 246.646 24.24H233.486C233.699 26.0267 234.206 27.28 235.006 28C235.806 28.72 236.912 29.08 238.326 29.08C239.179 29.08 240.006 28.9333 240.806 28.64C241.606 28.32 242.472 27.84 243.406 27.2L246.006 30.72C243.526 32.6933 240.766 33.68 237.726 33.68C234.286 33.68 231.646 32.6667 229.806 30.64C227.966 28.6133 227.046 25.8933 227.046 22.48C227.046 20.32 227.432 18.3867 228.206 16.68C228.979 14.9467 230.112 13.5867 231.606 12.6C233.099 11.5867 234.886 11.08 236.966 11.08C240.032 11.08 242.432 12.04 244.166 13.96C245.899 15.88 246.766 18.5467 246.766 21.96ZM240.566 20.16C240.512 16.9067 239.366 15.28 237.126 15.28C236.032 15.28 235.179 15.68 234.566 16.48C233.979 17.28 233.619 18.6 233.486 20.44H240.566V20.16ZM256.636 11.76V33H250.316V11.76H256.636ZM253.436 0.559998C254.529 0.559998 255.423 0.906665 256.116 1.6C256.836 2.26666 257.196 3.12 257.196 4.16C257.196 5.2 256.836 6.06667 256.116 6.76C255.423 7.42667 254.529 7.76 253.436 7.76C252.343 7.76 251.449 7.42667 250.756 6.76C250.063 6.06667 249.716 5.2 249.716 4.16C249.716 3.12 250.063 2.26666 250.756 1.6C251.449 0.906665 252.343 0.559998 253.436 0.559998ZM273.125 11.16C273.898 11.16 274.605 11.2533 275.245 11.44L274.245 17.56C273.445 17.3733 272.805 17.28 272.325 17.28C271.072 17.28 270.112 17.72 269.445 18.6C268.805 19.4533 268.298 20.7467 267.925 22.48V33H261.605V11.76H267.125L267.645 15.88C268.125 14.4133 268.845 13.2667 269.805 12.44C270.792 11.5867 271.898 11.16 273.125 11.16ZM293.133 26.84C293.133 27.64 293.24 28.2267 293.453 28.6C293.693 28.9733 294.067 29.2533 294.573 29.44L293.253 33.56C291.947 33.4533 290.88 33.1733 290.053 32.72C289.227 32.24 288.587 31.4933 288.133 30.48C286.747 32.6133 284.613 33.68 281.733 33.68C279.627 33.68 277.947 33.0667 276.693 31.84C275.44 30.6133 274.813 29.0133 274.813 27.04C274.813 24.72 275.667 22.9467 277.373 21.72C279.08 20.4933 281.547 19.88 284.773 19.88H286.933V18.96C286.933 17.7067 286.667 16.8533 286.133 16.4C285.6 15.92 284.667 15.68 283.333 15.68C282.64 15.68 281.8 15.7867 280.813 16C279.827 16.1867 278.813 16.4533 277.773 16.8L276.333 12.64C277.667 12.1333 279.027 11.7467 280.413 11.48C281.827 11.2133 283.133 11.08 284.333 11.08C287.373 11.08 289.6 11.7067 291.013 12.96C292.427 14.2133 293.133 16.0933 293.133 18.6V26.84ZM283.573 29.16C285.013 29.16 286.133 28.48 286.933 27.12V23.36H285.373C283.933 23.36 282.853 23.6133 282.133 24.12C281.44 24.6267 281.093 25.4133 281.093 26.48C281.093 27.3333 281.307 28 281.733 28.48C282.187 28.9333 282.8 29.16 283.573 29.16Z" fill="black"/>
</svg>
